PathFileType	4	(X/Y/Z)	Patient4_TMGait_0pt4_03_left_20.trc.trc
DataRate	CameraRate	NumFrames	NumMarkers	Units	OrigDataRate	OrigDataStartFrame	OrigNumFrames
77.777777777778	77.777777777778	5	33	mm	77.777777777778	106	       141
Frame#	Time	Sacral			L.Shoulder			Chest			R.Shoulder			Neck			R.ASIS			L.ASIS			R.Thigh.Superior			R.Thigh.Lateral			R.Thigh.Inferior			R.Patella			L.Thigh.Superior			L.Thigh.Lateral			L.Thigh.Inferior			L.Patella			L.Shank.Superior			L.Shank.Lateral			L.Shank.Inferior			R.Shank.Superior			R.Shank.Lateral			R.Shank.Inferior			R.Heel			R.Midfoot.Superior			R.Midfoot.Lateral			R.Toe			L.Heel			L.Midfoot.Lateral			L.Midfoot.Superior			L.Toe			L.Elbow			L.Wrist			R.Elbow			R.Wrist			
		X1	Y1	Z1	X2	Y2	Z2	X3	Y3	Z3	X4	Y4	Z4	X5	Y5	Z5	X6	Y6	Z6	X7	Y7	Z7	X8	Y8	Z8	X9	Y9	Z9	X10	Y10	Z10	X11	Y11	Z11	X12	Y12	Z12	X13	Y13	Z13	X14	Y14	Z14	X15	Y15	Z15	X16	Y16	Z16	X17	Y17	Z17	X18	Y18	Z18	X19	Y19	Z19	X20	Y20	Z20	X21	Y21	Z21	X22	Y22	Z22	X23	Y23	Z23	X24	Y24	Z24	X25	Y25	Z25	X26	Y26	Z26	X27	Y27	Z27	X28	Y28	Z28	X29	Y29	Z29	X30	Y30	Z30	X31	Y31	Z31	X32	Y32	Z32	X33	Y33	Z33	

106	27.500000000000	886.179564605580	1014.499754921455	542.515887845968	1081.401069854167	1429.951971152809	347.956501004403	1191.552944048752	1357.529663011655	502.645714493724	1125.918685959227	1437.720196398551	681.389878144002	1083.491246582558	1495.486623345131	503.149082384017	1120.173885504992	936.748623419056	642.788494555760	1087.922699268541	967.074772497023	372.004213602753	1151.481111551000	735.393149759087	607.850106786570	1067.434096721912	629.384323211325	668.602171167652	1139.361368421580	575.786655881070	584.829333958068	1136.147612529784	487.238675800387	590.227808806391	1170.526737865926	788.091655371998	395.753073720194	1130.908998410992	664.921443147903	310.361229869843	1233.360016509517	604.192727629420	372.104282773324	1254.901795533948	524.236546182106	360.097016288713	1209.649890006955	451.644020842499	346.552760339338	1092.940069472629	363.632444057551	296.584585427969	1134.329975776605	235.010880166585	340.254187533513	1100.745584774073	399.671476640180	596.240489314019	1023.356963583374	300.143982547158	655.881080249433	1058.473818823434	203.701232989547	591.178164597881	916.979549620575	43.639433611843	556.961681423186	1086.339692900724	96.744647095916	600.392620948145	997.231650886926	37.302738348408	635.798873118855	1205.853261485462	42.743528110727	632.942324822043	987.910441480736	98.748149733546	378.317205699598	1052.365631983799	86.491269534897	291.748786815275	1147.533559546124	132.040393066941	311.075852090108	1259.309796602485	62.342173962693	267.745671154670	1014.866332167695	1086.240234038648	223.756848069252	1121.291893280270	846.800333203992	188.153829684452	1098.657180769432	1108.879561661421	839.666262412878	1284.835855531781	930.948796977925	822.546161557070	
107	27.512857142857	885.269323435175	1015.273032371348	544.380782305792	1079.932932260323	1430.113874498181	348.446764073951	1191.412440392746	1357.264752647333	502.011651710346	1127.838957442996	1437.696274689567	681.394800154721	1083.400587752048	1495.640251615075	503.518729003015	1119.839230117105	936.327221126384	642.142763987419	1085.380580797271	967.707809330174	371.745754230579	1149.496802131351	734.761239022635	606.821531147797	1065.123251806752	629.303687224929	668.479645497530	1135.843268481816	575.250047632567	584.114348913089	1132.024636455863	486.824479329901	589.743560445547	1167.282706712510	788.565168444318	395.732560423716	1128.417771299073	665.753336981492	310.072135385531	1229.748457865237	604.826544286052	372.913442579040	1252.628716013961	526.587835353636	360.508257477325	1210.718899279099	453.661646520848	346.726222275643	1099.619728493610	359.424701102467	295.609635582233	1147.699378139448	232.961772586819	339.811997806864	1096.421117700947	399.379490550414	595.964651875373	1018.910593226687	300.061877815700	655.784757586879	1053.640867262294	203.555683365225	591.052311114588	911.810592743559	43.621012413041	557.007951381610	1081.150815914533	96.647236648127	600.268274514202	992.044349247582	37.281416541919	635.827858047144	1200.647876318055	42.733331169864	632.920392629495	1008.946496031082	88.199345695231	376.770389843690	1074.816904517775	79.781994011376	290.794900369608	1167.024504152061	130.751715884810	310.843379360920	1283.126117270679	67.641103247809	268.606203043896	1012.802603739517	1086.491436204933	224.126668218011	1117.106329039875	846.385342271041	186.977910182496	1101.860170519662	1108.910947694987	839.788396685528	1290.410259136384	934.132894661360	819.534710078098	
108	27.525714285714	884.436919363227	1015.961502265401	546.060278346759	1078.495989778661	1430.230269209252	348.774655980895	1191.233903376016	1356.989603137917	501.257877223232	1129.627188915646	1437.664710077776	681.229468055586	1083.245559236005	1495.759739308787	503.711830824856	1119.486181725930	935.897636014665	641.430506570137	1082.983758181585	968.279084423336	371.394214227266	1147.509059787818	734.106460532318	605.782059484590	1062.813143235318	629.185938643322	668.282138855465	1132.349042201876	574.698916266059	583.373579283703	1127.908557504936	486.388156299776	589.213824601025	1163.979173034904	788.788509978227	395.697094343302	1125.711226871925	666.340159625447	309.729997230352	1225.951386213937	605.157355368352	373.641254811172	1250.092217461530	528.694919773692	361.008402947039	1211.475149727535	455.537416612351	347.053088132552	1106.271659430530	355.590296137650	294.425200364389	1160.354185211367	231.560154097531	339.549015285511	1092.148282427181	399.083780693202	595.659206762154	1014.488424467793	299.978985438014	655.675852103741	1048.820960451684	203.401415913723	590.905045852258	906.636669289908	43.598422450856	557.050234471731	1075.957761356804	96.536123770316	600.112065945716	986.856824697963	37.260766726890	635.854765588696	1195.443930482725	42.733594835847	632.896809988157	1029.096705667817	79.237538453511	374.894412710751	1096.601510758977	74.274637933853	289.920230439565	1185.618916533594	130.243259817596	311.038163242783	1305.640753888880	73.401893332263	270.711004902284	1010.861085063459	1086.685163791135	224.348642416657	1112.953309800480	845.898538261663	185.714345466150	1104.972865200242	1108.767968288856	839.463100701528	1295.725206565948	937.130287460035	815.979698665999	
109	27.538571428571	883.707067226597	1016.553560149170	547.536588346565	1077.088569890354	1430.304645775719	348.939023873969	1191.009052144850	1356.717115171656	500.395860341060	1131.253521152847	1437.634854862530	680.902417156508	1083.014489662478	1495.848361517160	503.730801233904	1119.127443610498	935.469427285426	640.671428874334	1080.769870486791	968.785788491327	370.954292655766	1145.520638552586	733.427897776844	604.752238617783	1060.502665616011	629.030858221678	668.021985169456	1128.892437777688	574.127443370942	582.621784707898	1123.815021675644	485.927537477924	588.645768473653	1160.717829429506	788.794448284010	395.626718686628	1122.822249812429	666.667348863499	309.360190701603	1222.118529125563	605.213343574158	374.206595904972	1247.389406574898	530.537048445654	361.565470938497	1211.952686750634	457.239533498825	347.500786503924	1112.720687596475	352.195476845123	293.123386840095	1172.048987905923	230.757040914581	339.473995929586	1087.931476748278	398.782566298042	595.328331166051	1010.094025243425	299.894933468206	655.555575733969	1044.015039749557	203.237192631344	590.739939802365	901.456603001858	43.573647049864	557.086067216375	1070.761289193653	96.417423323463	599.934881639653	981.669798454222	37.240487260247	635.878660772408	1190.243011843475	42.744797970518	632.876994416361	1047.917409468740	71.880949989626	372.844304297830	1117.218911381291	69.943298116016	289.199390367922	1202.944065400255	130.421117190688	311.631352031315	1326.443397483707	79.401656461659	273.885263925963	1009.032177829163	1086.830471386774	224.415317651194	1108.857086987598	845.360138634223	184.371970047091	1107.974181377690	1108.452697875760	838.683855352726	1300.750768303977	939.925442120243	811.889753230343	
110	27.551428571429	883.104647185782	1017.036475139102	548.790873608781	1075.707067959950	1430.340092939715	348.940280265082	1190.730483980025	1356.459525008546	499.437508443570	1132.690217047776	1437.613054768636	680.423643745747	1082.695987854407	1495.908276873014	503.580360483490	1118.784028165161	935.055198042153	639.885181230814	1078.778487549733	969.219598325614	370.430553647175	1143.537268674205	732.727069459325	603.749247909276	1058.192387058801	628.841534070734	667.715783145728	1125.486452675214	573.530825918709	581.877259312947	1119.759244465345	485.442112754352	588.053835805967	1157.615776339458	788.613362983932	395.491122070026	1119.796900819200	666.717244274760	308.995190046230	1218.389168052443	605.010157356486	374.545626682256	1244.607753021078	532.076093257045	362.143369922540	1212.172210398368	458.720208389695	348.026017263411	1118.755892811849	349.251870684107	291.822156280235	1182.558905257089	230.440336124330	339.584202469273	1083.772908072157	398.474849468043	594.981666072114	1005.729541018813	299.809754373451	655.428819303555	1039.222409649303	203.062776916817	590.565022007263	896.270066382462	43.549175502330	557.114298124535	1065.562970444991	96.299313079912	599.751999593449	976.484099672691	37.219783762510	635.898150722124	1185.046195147970	42.765212356959	632.864857946114	1065.015225943592	66.032889007907	370.821811413113	1136.172686296204	66.672093354709	288.706420159603	1218.649032922746	131.120428819141	312.557150499848	1345.150378081418	85.365738110333	277.819441503475	1007.303144690205	1086.935192989304	224.321380204833	1104.844280169845	844.790193760443	182.961143946109	1110.838040186093	1107.970093790011	837.450390629617	1305.454767310331	942.506668755208	807.276622164186	
